<svg id="bcdf0900-8203-42b5-b4da-aea4a74296e4" data-name="Calque 1" xmlns="http://www.w3.org/2000/svg" width="336.9834" height="389.06079" viewBox="0 0 336.9834 389.06079"><defs><style>.aba9cc1d-a0f7-4bf3-9463-0588ae79099e{fill:#341f97;}.f249c0b9-c694-419c-b915-b3ef0a004ed2{fill:#4c29cc;}.ab1b3117-12e3-42a0-9e3c-269890ca8e6f{fill:#6b48ff;}.bcbd738f-4e94-4e6e-ac20-769cb370c5fa{fill:#bbbcc0;}.bdfb3888-89ae-4f44-b4de-76f3f8a8a75e{opacity:0.59;}.b5be21c8-cb1e-46eb-bdfd-2e643329d02a{opacity:0.22;}.f737f87a-824d-44aa-b490-6020a19b42ff{fill:#fff;}</style></defs><path class="aba9cc1d-a0f7-4bf3-9463-0588ae79099e" d="M81.97624,345.91977,81.5083,151.61909C106.34493,137.32575,251.14847,55.4696,251.14847,55.4696l-.23735,117.93463L184.81066,210.993v76.875Z" transform="translate(-81.5083 -55.4696)"/><polyline class="f249c0b9-c694-419c-b915-b3ef0a004ed2" points="169.039 389.061 0.468 290.45 103.302 232.398 169.34 268.531 234.305 232.476 336.983 288.317"/><path class="ab1b3117-12e3-42a0-9e3c-269890ca8e6f" d="M418.4917,343.787l-102.678-55.84183-.24763-75.24686s-45.71514-28.34155-64.65492-39.29409l.23735-117.93463L418.48252,151.462Z" transform="translate(-81.5083 -55.4696)"/><path class="bcbd738f-4e94-4e6e-ac20-769cb370c5fa" d="M250.84855,324.00022V249.096c12.51124-7.22218,55.45588-31.37167,64.71749-36.39767l.24761,75.24687Z" transform="translate(-81.5083 -55.4696)"/><polygon class="bdfb3888-89ae-4f44-b4de-76f3f8a8a75e" points="169.34 268.531 234.305 232.476 282.539 258.708 169.34 268.531"/><polygon class="b5be21c8-cb1e-46eb-bdfd-2e643329d02a" points="282.539 258.708 234.305 232.476 234.058 157.229 282.539 258.708"/><polyline class="f737f87a-824d-44aa-b490-6020a19b42ff" points="103.302 232.398 169.34 268.531 169.34 193.626 234.058 157.229 169.403 117.935 103.302 155.523"/></svg>